<svg width="24" height="25" viewBox="0 0 24 25" fill="none" xmlns="http://www.w3.org/2000/svg">
<path fill-rule="evenodd" clip-rule="evenodd" d="M19.9489 8.33748C20.2301 8.61868 20.23 9.07455 19.9488 9.35572L12.7748 16.5289C12.7746 16.5291 12.775 16.5287 12.7748 16.5289C12.3174 16.9878 11.5757 16.9865 11.1194 16.5301L7.69117 13.1019C7.40999 12.8207 7.40999 12.3648 7.69117 12.0837C7.97235 11.8025 8.42823 11.8025 8.7094 12.0837L11.9465 15.3208L18.9306 8.33743C19.2118 8.05626 19.6677 8.05629 19.9489 8.33748Z" fill="currentColor"/>
<path fill-rule="evenodd" clip-rule="evenodd" d="M15.4539 8.33744C15.7351 8.61862 15.7351 9.07449 15.4539 9.35568L12.4566 12.3529C12.1754 12.6341 11.7196 12.6341 11.4384 12.3529C11.1572 12.0718 11.1572 11.6159 11.4384 11.3347L14.4357 8.33744C14.7169 8.05626 15.1727 8.05626 15.4539 8.33744Z" fill="currentColor"/>
<path fill-rule="evenodd" clip-rule="evenodd" d="M3.57087 12.4587C3.85204 12.1775 4.30793 12.1775 4.5891 12.4587L7.45173 15.3213L9.19017 13.5829C9.47134 13.3017 9.92725 13.3017 10.2084 13.5829C10.4896 13.8641 10.4896 14.32 10.2084 14.6012L8.27884 16.5307C7.82165 16.9879 7.08182 16.9879 6.62462 16.5307L3.57087 13.4769C3.28969 13.1957 3.28969 12.7399 3.57087 12.4587Z" fill="currentColor"/>
</svg>
