<svg width="22" height="22" viewBox="0 0 22 22" fill="none" xmlns="http://www.w3.org/2000/svg">
<path fill-rule="evenodd" clip-rule="evenodd" d="M10.7608 1.83334C15.6833 1.83334 19.6873 5.83734 19.6873 10.7598C19.6873 13.0823 18.796 15.2004 17.3376 16.7901L20.2074 19.654C20.476 19.9226 20.4769 20.3571 20.2083 20.6257C20.0745 20.7613 19.8976 20.8282 19.7216 20.8282C19.5465 20.8282 19.3705 20.7613 19.2357 20.6275L16.3312 17.7311C14.8034 18.9547 12.8661 19.6873 10.7608 19.6873C5.83829 19.6873 1.83337 15.6823 1.83337 10.7598C1.83337 5.83734 5.83829 1.83334 10.7608 1.83334ZM10.7608 3.20834C6.59637 3.20834 3.20837 6.59543 3.20837 10.7598C3.20837 14.9243 6.59637 18.3123 10.7608 18.3123C14.9243 18.3123 18.3123 14.9243 18.3123 10.7598C18.3123 6.59543 14.9243 3.20834 10.7608 3.20834Z" fill="#A4A5C8"/>
</svg>
